<svg xmlns="http://www.w3.org/2000/svg" width="32" height="32" class="icon" viewBox="0 0 1024 1024"><path fill="#666A73" d="M943.002 579.072a1373.696 1373.696 0 0 0-30.823-82.995l-30.515-72.5.051-8.652C881.766 166.707 733.184 0 512 0S142.234 166.707 142.234 414.874l.05 8.601-29.9 71.066a1355.776 1355.776 0 0 0-31.488 84.633c-36.557 111.924-39.322 193.383-8.09 242.023 16.896 26.317 43.367 43.827 73.216 48.742a118.682 118.682 0 0 0 13.108 92.058c35.43 56.985 102.553 61.235 200.908 61.235 56.781 0 117.197-2.918 151.91-5.94 34.714 3.073 95.08 5.94 151.911 5.94 98.355 0 165.479-4.25 200.858-61.133 15.923-25.6 21.811-59.494 13.158-92.16a107.776 107.776 0 0 0 73.216-48.742c31.181-48.64 28.467-130.1-8.09-242.125zM861.286 768.87l-.768.052c-19.865 0-73.932-83.661-73.932-83.661 0 49.664-26.88 121.344-84.992 168.14 21.76 6.4 48.435 16.18 65.536 28.263 15.41 10.803 13.465 21.811 10.7 26.317-5.99 9.625-56.985 12.8-113.92 12.8-58.419 0-123.136-3.328-151.91-6.4-28.774 3.123-93.491 6.4-151.91 6.4-56.935 0-107.879-3.175-113.92-12.8-2.765-4.455-4.71-15.514 10.7-26.317 17.101-12.032 43.776-21.862 65.536-28.262-58.112-46.848-84.992-118.477-84.992-168.192 0 0-54.118 83.66-73.932 83.66l-.768-.05c-8.96-1.025-20.685-47.002 15.564-158.055 7.578-23.296 17.972-50.432 28.468-76.544l38.348-91.136c0-1.075-.512-19.047-.512-28.263C244.634 259.021 321.946 102.4 512 102.4s267.366 156.62 267.366 312.474c0 9.267-.46 27.187-.512 28.262l38.4 91.136c10.496 26.112 20.89 53.248 28.468 76.544 36.25 111.053 24.524 157.03 15.564 158.054z"/></svg>